<?xml version="1.0" ?>
<!-- Uploaded to: SVG Repo, www.svgrepo.com, Generator: SVG Repo Mixer Tools -->
<svg width="800px" height="800px" viewBox="0 0 512 512" id="Layer_1" version="1.1" xml:space="preserve" xmlns="http://www.w3.org/2000/svg" xmlns:xlink="http://www.w3.org/1999/xlink">
<style type="text/css">
	.st0{fill:#FC8A8A;}
	.st1{fill:#F96364;}
	.st2{fill:#FCB0B0;}
	.st3{fill:#D3D9D9;}
	.st4{fill:#E8EAEA;}
	.st5{fill:#A8B2B4;}
	.st6{fill:#FEDD8E;}
	.st7{fill:#FDD367;}
	.st8{fill:#FEE9B4;}
	.st9{fill:#FFFFFF;}
	.st10{fill:#EDEDED;}
	.st11{fill:#D4F0FC;}
	.st12{fill:#E0F5FC;}
	.st13{fill:#C3EDFC;}
	.st14{fill:#333333;}
</style>
<g>
<g>
<g>
<g>
<path class="st0" d="M103.1,231.1v108.3H37.6c-4.7,0-8.5-3.8-8.5-8.5v-91.3c0-4.7,3.8-8.5,8.5-8.5H103.1z"/>
</g>
<g>
<path class="st1" d="M103.1,320.4v19H37.6c-4.7,0-8.5-3.8-8.5-8.5v-19.1c0,4.7,3.8,8.6,8.5,8.6H103.1z"/>
</g>
<g>
<path class="st2" d="M103.1,231.1v19H37.6c-4.7,0-8.5,3.8-8.5,8.5v-19c0-4.7,3.8-8.5,8.5-8.5H103.1z"/>
</g>
<g>
<path class="st3" d="M3,251.6v67.2c0,4.7,3.8,8.5,8.5,8.5H29v-84.3H11.5C6.8,243.1,3,246.9,3,251.6z"/>
</g>
<g>
<path class="st4" d="M29,243.1v14.5H11.5c-4.7,0-8.5,3.8-8.5,8.5v-14.5c0-4.7,3.8-8.5,8.5-8.5H29z"/>
</g>
<g>
<path class="st5" d="M29,312.9v14.5H11.5c-4.7,0-8.5-3.8-8.5-8.5v-14.5c0,4.7,3.8,8.5,8.5,8.5H29z"/>
</g>
<g>
<path class="st6" d="M231.2,285.2c0,71.3,12.9,130.7,30,143.6l-158.1-89.5V231.1l158.1-89.5C244.1,154.6,231.2,214,231.2,285.2z      "/>
</g>
<g>
<path class="st7" d="M261.2,428.9l-158.1-89.5v-28l139.4,78.9C247.6,409.7,254,423.4,261.2,428.9z"/>
</g>
<g>
<path class="st8" d="M261.2,141.6c-7.2,5.5-13.7,19.2-18.7,38.6L103.1,259v-28L261.2,141.6z"/>
</g>
<g>
<path class="st9" d="M305.2,285.2c0,80.7-16.5,146.2-36.9,146.2c-20.4,0-37-65.5-37-146.2c0-80.7,16.5-146.2,37-146.2      C288.6,139.1,305.2,204.5,305.2,285.2z"/>
</g>
<g>
<path class="st10" d="M305.2,285.2c0,80.7-16.6,146.2-36.9,146.2c-11.4,0-21.6-20.4-28.4-52.5c5.3,11.3,11.3,17.6,17.6,17.6      c20.4,0,36.9-65.5,36.9-146.2c0-35.6-3.2-68.3-8.6-93.7C297.3,181.5,305.2,229.8,305.2,285.2z"/>
</g>
<g>
<path class="st3" d="M287.2,285.2c0,25.6-20.8,46.4-46.4,46.4h-7.7c-1.3-14.6-1.9-30.2-1.9-46.4s0.7-31.9,1.9-46.4h7.7      C266.5,238.8,287.2,259.6,287.2,285.2z"/>
</g>
<g>
<path class="st5" d="M287.2,285.2c0,25.6-20.8,46.4-46.4,46.4h-7.7c-0.6-7.1-1.1-14.4-1.4-22c25.1-0.6,45.2-21.1,45.2-46.4      c0-2.7-0.3-5.5-0.7-8.1C283.1,263.3,287.2,273.8,287.2,285.2z"/>
</g>
</g>
<g>
<g>
<path class="st3" d="M94.5,383.9c0,11.1-8.5,11.1-8.5,22.2c0,11.1,8.5,11.1,8.5,22.2c0,11.1-8.5,11.1-8.5,22.2      c0,11.1,8.5,11.1,8.5,22.2H47.4c-5.4,0-9.7-4.3-9.7-9.7V339.4h56.8c0,11.1-8.5,11.1-8.5,22.2C86,372.7,94.5,372.7,94.5,383.9z"/>
</g>
<g>
<path class="st4" d="M86,361.7c0,0.2,0,0.5,0,0.7H37.7v-23h56.8C94.5,350.5,86,350.5,86,361.7z"/>
</g>
<g>
<path class="st5" d="M94.5,472.7H47.4c-5.3,0-9.7-4.3-9.7-9.7v-23c0,5.4,4.4,9.7,9.7,9.7H86c0,0.2,0,0.5,0,0.7      C86,461.6,94.5,461.6,94.5,472.7z"/>
</g>
</g>
</g>
<g>
<path class="st11" d="M508,113.5c0,42.1-47.8,76.3-106.7,76.3c-18.5,0-35.9-3.4-51.1-9.3C340,193.7,329.4,202.2,276,207    c30.6-24.7,30-35.7,35.1-52.8c-10.5-11.8-16.5-25.7-16.5-40.7c0-42.1,47.8-76.2,106.7-76.2S508,71.4,508,113.5z"/>
</g>
<g>
<path class="st12" d="M501.5,87.3C482.7,65.6,449,51,410.6,51c-58.9,0-106.7,34.1-106.7,76.2c0,9.2,2.2,17.9,6.4,26.1    c-10-11.5-15.7-25.2-15.7-39.8c0-42,47.7-76.2,106.7-76.2C447.3,37.3,486.6,58.1,501.5,87.3z"/>
</g>
<g>
<path class="st13" d="M508,113.5c0,42.1-47.8,76.3-106.7,76.3c-18.6,0-36-3.4-51.1-9.3c-10.2,13.3-20.8,21.8-74.2,26.5    c10-8.1,16.7-14.6,21.3-20.5c32.4-5,41-12.7,49.4-23.6c15.2,6,32.6,9.3,51.1,9.3c59,0,106.7-34.1,106.7-76.3c0-0.6,0-1.3,0-1.9    C506.8,100.2,508,106.8,508,113.5z"/>
</g>
<g>
<g>
<circle class="st6" cx="401.3" cy="113.5" r="57.6"/>
</g>
<g>
<path class="st7" d="M458.9,113.5c0,31.8-25.8,57.6-57.6,57.6c-19.6,0-36.9-9.8-47.2-24.8c9.3,6.5,20.6,10.3,32.8,10.3     c31.8,0,57.6-25.8,57.6-57.6c0-12.2-3.8-23.5-10.3-32.9C449.1,76.6,458.9,93.9,458.9,113.5z"/>
</g>
<g>
<path class="st8" d="M448.6,80.6c-9.3-6.5-20.7-10.3-32.9-10.3c-31.8,0-57.6,25.8-57.6,57.6c0,12.2,3.8,23.5,10.4,32.9     c-15-10.4-24.8-27.7-24.8-47.3c0-31.9,25.8-57.6,57.6-57.6C420.9,55.9,438.2,65.6,448.6,80.6z"/>
</g>
<g>
<path class="st14" d="M401.3,175.1c-34,0-61.6-27.6-61.6-61.6c0-34,27.6-61.6,61.6-61.6c34,0,61.6,27.6,61.6,61.6     C462.9,147.4,435.3,175.1,401.3,175.1z M401.3,59.9c-29.6,0-53.6,24.1-53.6,53.6s24,53.6,53.6,53.6s53.6-24,53.6-53.6     S430.9,59.9,401.3,59.9z"/>
</g>
<path class="st14" d="M419.4,120.6c-2.9-5.6-8.1-9.5-14.1-10.7V85.6c2.9,1,5.5,3.1,7,6c1,2,3.4,2.8,5.4,1.8c2-1,2.8-3.4,1.8-5.4    c-2.9-5.8-8.2-9.4-14.1-10.6v-2.9c0-2.2-1.8-4-4-4s-4,1.8-4,4v2.9c-1.7,0.3-3.5,0.8-5.1,1.7c-10,5-14,17.2-9,27.2    c2.9,5.6,8.1,9.5,14.1,10.7v24.3c-3-1-5.5-3.2-7-6.1c-1-2-3.4-2.8-5.4-1.8c-2,1-2.8,3.4-1.8,5.4c2.4,4.8,6.6,8.4,11.8,10.1    c0.8,0.3,1.6,0.4,2.4,0.6v2.8c0,2.2,1.8,4,4,4s4-1.8,4-4v-2.8c1.8-0.4,3.5-0.9,5.1-1.7C420.4,142.8,424.4,130.6,419.4,120.6z     M390.3,102.7c-3-6.1-0.6-13.4,5.4-16.5c0.5-0.2,1-0.4,1.5-0.6v23.1C394.3,107.8,391.8,105.6,390.3,102.7z M406.8,140.7    c-0.5,0.2-1,0.4-1.5,0.6v-23.1c3,1,5.5,3.1,7,6C415.3,130.3,412.9,137.7,406.8,140.7z"/>
</g>
<path class="st14" d="M401.3,34.3c-60.5,0-109.7,35.5-109.7,79.2c0,14.7,5.6,29,16.2,41.4c-0.5,1.7-0.9,3.2-1.3,4.8   c-1.9,7-3.6,13.3-8.4,20.6c-6.9-27-16.9-45.3-29.8-45.3c-3.1,0-6,1.1-8.7,3c-0.1,0-0.2,0-0.3,0.1l-157.2,88.9H37.6   c-6.7,0-12.2,5.4-12.5,12H11.5c-6.9,0-12.5,5.6-12.5,12.5v67.2c0,6.9,5.6,12.5,12.5,12.5h13.5c0.2,5.3,3.7,9.8,8.6,11.4V463   c0,7.5,6.2,13.7,13.7,13.7h47.1c2.2,0,4-1.8,4-4c0-6.9-2.8-10.6-5.1-13.5c-2-2.6-3.4-4.5-3.4-8.7c0-4.2,1.4-6,3.4-8.6   c2.3-3,5.1-6.6,5.1-13.6c0-6.9-2.8-10.6-5.1-13.5c-2-2.6-3.4-4.5-3.4-8.7c0-4.2,1.4-6.1,3.4-8.7c2.3-3,5.1-6.6,5.1-13.5   c0-6.9-2.8-10.6-5.1-13.6c-2-2.6-3.4-4.5-3.4-8.7c0-4.2,1.4-6.1,3.4-8.7c1.8-2.3,3.9-5.1,4.7-9.6h3.9l157.2,88.9   c0.1,0.1,0.3,0.1,0.4,0.2c2.7,1.9,5.6,2.9,8.6,2.9c26.6,0,40.9-77.4,40.9-150.2c0-27-2-54.5-5.8-78.6c30.3-5,39.8-12.6,47.8-22.6   c15.4,5.7,32.7,8.7,50.1,8.7c60.5,0,109.7-35.6,109.7-79.3C511,69.8,461.8,34.3,401.3,34.3z M25,323.4H11.5c-2.5,0-4.5-2-4.5-4.5   v-67.2c0-2.5,2-4.5,4.5-4.5H25V323.4z M90.5,383.9c0,4.2-1.4,6.1-3.4,8.7c-2.3,3-5.1,6.6-5.1,13.5c0,6.9,2.8,10.6,5.1,13.6   c2,2.6,3.4,4.5,3.4,8.7c0,4.2-1.4,6.1-3.4,8.7c-2.3,2.9-5.1,6.6-5.1,13.5c0,6.9,2.8,10.6,5.1,13.6c1.2,1.6,2.2,2.9,2.8,4.6H47.4   c-3.2,0-5.7-2.5-5.7-5.7V343.4h48.2c-0.6,1.8-1.6,3.1-2.8,4.7c-2.3,3-5.1,6.6-5.1,13.5c0,6.9,2.8,10.6,5.1,13.5   C89,377.8,90.5,379.7,90.5,383.9z M99.1,335.4H37.6c-2.5,0-4.5-2-4.5-4.5v-91.3c0-2.5,2-4.5,4.5-4.5h61.5V335.4z M107.1,337.1   V233.4L247.5,154c-13.3,27.4-20.3,80.4-20.3,131.3c0,50.8,7,103.9,20.3,131.3L107.1,337.1z M236.8,242.8h4   c23.4,0,42.4,19,42.4,42.4c0,23.4-19,42.4-42.4,42.4h-4c-1-13.2-1.6-27.4-1.6-42.4C235.2,270.2,235.8,256,236.8,242.8z    M301.1,285.2c0,83.8-17.4,142.2-32.9,142.2c-12.2,0-25.5-35.9-30.7-91.7h3.3c27.8,0,50.4-22.6,50.4-50.4s-22.6-50.4-50.4-50.4   h-3.3c5.2-55.9,18.5-91.7,30.7-91.7c8.3,0,17.2,16.8,23.6,45.2c-4.3,4.8-9.9,10.1-17.7,16.4c-1,0.8-1.4,2.2-0.9,3.5   c0.5,1.1,1.6,1.9,2.8,1.9c0.1,0,0.2,0,0.3,0c7.2-0.6,13.5-1.3,19.3-2.1C299,229.6,301.1,255.8,301.1,285.2z M401.3,186.8   c-17.5,0-34.8-3.2-50-9.1c-1.2-0.5-2.7-0.1-3.5,1c-9.1,11.9-18.2,19.7-62.5,24.4c20.6-18.2,23.6-29.2,26.9-41.7   c0.5-2,1.1-4.1,1.7-6.3c0.3-1,0.1-2.1-0.6-2.9c-10.3-11.6-15.7-25-15.7-38.7c0-40.4,46.5-73.2,103.7-73.2S505,73.1,505,113.5   C505,153.9,458.5,186.8,401.3,186.8z"/>
</g>
</svg>