<?xml version="1.0" ?>
<!-- Uploaded to: SVG Repo, www.svgrepo.com, Generator: SVG Repo Mixer Tools -->
<svg width="800px" height="800px" viewBox="0 0 512 512" id="Layer_1" version="1.1" xml:space="preserve" xmlns="http://www.w3.org/2000/svg" xmlns:xlink="http://www.w3.org/1999/xlink">
<g id="_x30_23_Sale_Item">
<g>
<g>
<g>
<g>
<g>
<g>
<g>
<path d="M491.354,107.718l-50.567,50.566c-4.652,4.652-12.187,4.652-16.839,0.047l-19.398-19.352          v269.717H124.878V138.979l-19.398,19.352c-4.652,4.605-12.188,4.605-16.84-0.047l-50.565-50.566          c-4.652-4.652-4.652-12.187,0-16.839L121.39,7.471c2.233-2.233,5.256-3.489,8.42-3.489h53.217          c3.861,33.028,38.751,58.846,81.408,58.846h0.559c42.657,0,77.547-25.818,81.408-58.846h53.217          c3.163,0,6.187,1.256,8.42,3.489l83.315,83.408C496.006,95.531,496.006,103.067,491.354,107.718z" style="fill:#BE90BE;"/>
</g>
</g>
</g>
</g>
<g>
<g>
<g>
<g>
<path d="M491.354,107.718l-50.613,50.613c-4.605,4.605-12.141,4.605-16.793,0l-19.446-19.352v269.762          H125.575v-68.94c142.814-21.306,252.319-144.488,252.319-293.302c0-14.467-0.978-28.656-3.024-42.518h24.702          c3.163,0,6.186,1.256,8.419,3.489l83.363,83.455C496.006,95.531,496.006,103.067,491.354,107.718z" style="fill:#A76BA7;"/>
</g>
</g>
</g>
</g>
</g>
<g>
<g>
<path d="M376.143,128.819v67.106c0,2.206-1.284,4.212-3.289,5.134L341.006,215.9       c-1.525,0.682-3.249,0.682-4.774,0l-31.888-14.841c-2.006-0.923-3.289-2.928-3.289-5.134v-67.106H376.143z" style="fill:#E9DAE9;"/>
</g>
<g>
<g>
<g>
<g>
<path d="M376.143,128.819v67.106c0,2.206-1.284,4.212-3.289,5.134L341.006,215.9          c-1.525,0.682-3.249,0.682-4.774,0l-8.222-3.851c16.125-25.551,28.8-53.509,37.344-83.231L376.143,128.819L376.143,128.819z          " style="fill:#D3B5D3;"/>
</g>
</g>
</g>
</g>
<path d="M376.122,124.838h-75.058c-2.205,0-3.989,1.784-3.989,3.989v67.096      c0,3.782,2.213,7.222,5.59,8.737l31.875,14.837c1.293,0.604,2.684,0.904,4.071,0.904s2.77-0.3,4.059-0.904l31.813-14.814      c3.42-1.542,5.629-4.982,5.629-8.76v-67.096C380.111,126.622,378.327,124.838,376.122,124.838z M305.053,132.815h67.081v13.895      h-67.081V132.815z M372.133,195.923c0,0.646-0.366,1.231-0.974,1.507l-31.863,14.837c-0.444,0.21-0.947,0.199-1.383,0      l-31.93-14.86c-0.565-0.253-0.931-0.838-0.931-1.484v-41.236h67.081V195.923z" style="fill:#333333;"/>
</g>
</g>
<g>
<g>
<g>
<polygon points="68.304,381.916 24.517,490.58 54.225,479.296 67.81,508.025 118.626,381.916      " style="fill:#FB8A8A;"/>
</g>
<g>
<polygon points="182.847,381.916 132.525,381.916 183.341,508.025 196.926,479.296 226.634,490.58             " style="fill:#FB8A8A;"/>
</g>
</g>
<g>
<path d="M201.447,428.05c-8.496,2.473-19.744,2.832-34.464,0.718c-3.31,3.311-6.701,7.658-10.73,12.006      L132.52,381.9h50.338L201.447,428.05z" style="fill:#F96363;"/>
</g>
<g>
<path d="M68.302,381.9h50.338l-23.733,58.874c-3.391-3.551-6.861-7.579-10.691-12.006      c-10.131,2.473-22.776,2.034-33.905-2.234L68.302,381.9z" style="fill:#F96363;"/>
</g>
<g>
<path d="M233.968,329.105c0,13.292-22.377,22.017-27.201,33.616c-4.927,12.009,4.516,33.975-4.516,43.008      c-9.034,9.033-31.05-0.41-43.009,4.568c-11.599,4.773-20.323,27.201-33.668,27.201c-13.293,0-22.017-22.428-33.616-27.201      c-11.957-4.978-33.975,4.465-43.008-4.568c-9.033-9.033,0.411-30.999-4.568-43.008c-4.773-11.599-27.2-20.324-27.2-33.616      c0-13.293,22.427-22.069,27.2-33.616c4.979-12.009-4.464-34.027,4.568-43.059c9.033-9.033,30.999,0.461,43.008-4.517      c11.599-4.824,20.323-27.201,33.616-27.201c13.344,0,22.069,22.376,33.668,27.201c11.958,4.978,33.975-4.516,43.009,4.517      c9.032,9.032-0.411,31.05,4.567,43.059C211.591,307.036,233.968,315.812,233.968,329.105z" style="fill:#7BDE9E;"/>
</g>
<g>
<path d="M165.308,249.274c-4.467,53.369-49.221,95.292-103.748,95.292      c-15.237,0-29.676-3.271-42.68-9.134c-1.077-1.994-1.715-4.109-1.715-6.342c0-13.283,22.456-22.058,27.204-33.586      c4.986-12.006-4.468-34.024,4.587-43.079c9.015-9.014,30.993,0.479,42.999-4.507c11.607-4.826,20.342-27.203,33.625-27.203      c13.323,0,22.058,22.377,33.665,27.203C161.08,248.675,163.114,249.074,165.308,249.274z" style="fill:#A7E9BF;"/>
</g>
<g>
<path d="M233.955,329.089c0,13.323-22.377,22.018-27.203,33.625c-4.906,12.006,4.547,33.984-4.508,42.999      c-9.015,9.055-31.033-0.399-42.999,4.587c-11.607,4.787-20.342,27.204-33.665,27.204c-13.283,0-22.018-22.417-33.625-27.204      c-11.966-4.986-33.984,4.468-42.999-4.587c-5.146-5.146-4.308-14.479-3.551-23.813c6.063,0.837,12.286,1.276,18.588,1.276      c73.952,0,134.222-58.316,137.373-131.51c0.319,0.239,0.598,0.479,0.877,0.758c9.055,9.054-0.398,31.073,4.588,43.079      C211.578,307.031,233.955,315.806,233.955,329.089z" style="fill:#50D27E;"/>
</g>
<path d="M494.187,88.071L410.862,4.625c-2.992-2.991-7.021-4.627-11.249-4.627h-53.211     c-2.034,0-3.749,1.516-3.949,3.511c-3.709,31.551-37.016,55.324-77.462,55.324h-0.559c-40.446,0-73.752-23.773-77.462-55.324     c-0.2-1.994-1.915-3.511-3.949-3.511H129.81c-4.268,0-8.257,1.635-11.249,4.668L35.236,88.071     c-2.992,2.991-4.627,6.98-4.627,11.208c0,4.268,1.635,8.257,4.627,11.249l50.577,50.577c6.183,6.183,16.274,6.223,22.497,0.041     l12.564-12.565v68.913c-7.073,2.115-12.635,8.65-18.022,15.077c-4.102,4.896-8.344,9.96-12.426,11.659     c-4.371,1.815-11.18,1.25-17.766,0.693c-9.914-0.833-20.154-1.69-26.531,4.686c-6.377,6.377-5.535,16.645-4.721,26.57     c0.541,6.591,1.102,13.407-0.713,17.79c-1.679,4.055-6.735,8.293-11.627,12.391c-7.806,6.54-15.877,13.302-15.877,22.749     c0,9.43,8.052,16.173,15.842,22.694c4.904,4.105,9.976,8.355,11.662,12.449c1.815,4.375,1.254,11.179,0.713,17.759     c-0.814,9.914-1.655,20.162,4.721,26.539c1.654,1.654,3.577,2.804,5.679,3.615l-31.012,76.94     c-0.559,1.476-0.24,3.151,0.877,4.268c1.117,1.117,2.792,1.516,4.268,0.918l26.246-9.972l12.006,25.408     c0.678,1.396,2.074,2.274,3.63,2.274h0.119c1.556-0.04,2.992-0.997,3.551-2.473l33.009-81.953     c6.031,7.134,12.416,13.914,21.068,13.914c8.657,0,15.047-6.749,21.076-13.867l32.982,81.906     c0.599,1.476,1.994,2.434,3.591,2.473h0.12c1.555,0,2.952-0.878,3.59-2.274l12.006-25.408l26.286,9.972     c1.475,0.598,3.151,0.198,4.267-0.918c1.117-1.117,1.436-2.792,0.837-4.268l-30.782-76.425h205.012     c2.193,0,3.989-1.795,3.989-3.989V148.584l12.604,12.604c6.183,6.143,16.275,6.103,22.457-0.08l50.577-50.577     c2.992-2.992,4.627-6.98,4.627-11.249C498.814,95.051,497.179,91.063,494.187,88.071z M67.508,498.077l-9.693-20.502     c-0.678-1.396-2.074-2.274-3.589-2.274c-0.479,0-0.957,0.08-1.396,0.28l-21.22,8.018l28.146-69.894     c4.144,0.25,8.566-0.077,12.939-0.435c6.583-0.538,13.384-1.098,17.743,0.717c2.697,1.111,5.467,3.708,8.219,6.75L67.508,498.077     z M198.339,475.58c-1.953-0.758-4.148,0.12-5.025,1.994l-9.693,20.502l-31.127-77.286c2.771-3.067,5.561-5.691,8.285-6.813     c4.343-1.811,11.152-1.25,17.727-0.709c4.349,0.357,8.724,0.634,12.843,0.374l28.171,69.956L198.339,475.58z M201.827,382.624     c0.674,8.118,1.375,16.512-2.396,20.283c-3.771,3.763-12.161,3.077-20.271,2.411c-7.526-0.619-15.308-1.262-21.436,1.289     c-5.897,2.427-10.782,8.254-15.507,13.895c-5.36,6.392-10.899,13.006-16.645,13.006c-5.703,0-11.23-6.603-16.574-12.983     c-4.729-5.648-9.617-11.487-15.507-13.91c-3.404-1.418-7.319-1.854-11.413-1.854c-3.284,0-6.684,0.281-10.034,0.557     c-8.118,0.662-16.504,1.355-20.271-2.411c-3.767-3.763-3.077-12.142-2.411-20.244c0.619-7.526,1.258-15.313-1.289-21.459     c-2.431-5.901-8.27-10.79-13.914-15.519c-6.384-5.344-12.987-10.872-12.987-16.578c0-5.722,6.622-11.269,13.022-16.633     c5.629-4.717,11.448-9.594,13.875-15.457c2.551-6.158,1.913-13.953,1.293-21.49c-0.666-8.118-1.356-16.512,2.411-20.279     c3.759-3.759,12.126-3.054,20.224-2.38c7.541,0.631,15.324,1.281,21.49-1.274c5.886-2.446,10.767-8.27,15.484-13.902     c5.352-6.384,10.887-12.991,16.602-12.991c5.757,0,11.304,6.618,16.672,13.014c4.713,5.621,9.586,11.437,15.464,13.879     c6.143,2.559,13.93,1.909,21.471,1.278c8.11-0.678,16.493-1.379,20.252,2.376c3.763,3.767,3.073,12.157,2.407,20.275     c-0.619,7.538-1.258,15.332,1.293,21.49c2.423,5.862,8.231,10.739,13.848,15.453c6.388,5.368,12.999,10.915,12.999,16.641     c0,5.714-6.606,11.25-12.991,16.602c-5.633,4.717-11.456,9.598-13.91,15.499C200.554,367.351,201.2,375.118,201.827,382.624z      M488.523,104.904l-50.537,50.577c-3.111,3.071-8.137,3.071-11.209,0.04l-19.425-19.385c-1.117-1.117-2.832-1.437-4.348-0.838     c-1.475,0.598-2.433,2.073-2.433,3.669v265.732H207.797c3.285-6.269,2.658-14.598,1.981-22.738     c-0.549-6.567-1.114-13.357,0.67-17.708c1.702-4.086,6.766-8.328,11.662-12.43c7.791-6.529,15.846-13.279,15.846-22.717     c0-9.442-8.055-16.208-15.846-22.749c-4.881-4.098-9.929-8.336-11.608-12.395c-1.815-4.378-1.254-11.195-0.713-17.786     c0.814-9.929,1.659-20.193-4.717-26.57c-6.373-6.373-16.637-5.512-26.558-4.686c-6.583,0.549-13.388,1.118-17.739-0.689     c-4.078-1.698-8.32-6.754-12.418-11.643c-5.762-6.866-11.698-13.927-19.502-15.52v-78.102c0-1.596-0.957-3.072-2.433-3.669     c-1.476-0.599-3.231-0.279-4.348,0.838l-19.386,19.345c-3.11,3.071-8.136,3.071-11.248,0l-50.537-50.577     c-1.516-1.515-2.314-3.51-2.314-5.625c0-2.113,0.797-4.069,2.314-5.584l83.325-83.405c1.475-1.516,3.47-2.314,5.584-2.314h49.78     c6.103,33.785,41.803,58.834,84.841,58.834h0.559c43.038,0,78.778-25.05,84.841-58.834h49.78c2.114,0,4.109,0.837,5.624,2.314     l83.285,83.405c1.516,1.515,2.314,3.471,2.314,5.584C490.837,101.394,490.039,103.388,488.523,104.904z" style="fill:#333333;"/>
<g>
<path d="M185.202,329.087c0,32.926-26.702,59.628-59.627,59.628c-32.926,0-59.628-26.702-59.628-59.628      s26.702-59.628,59.628-59.628C158.499,269.459,185.202,296.161,185.202,329.087z" style="fill:#FDDD8D;"/>
</g>
<g>
<path d="M137.672,291.364c0,27.48-22.336,49.817-49.861,49.817c-7.65,0-14.905-1.715-21.368-4.837      c-0.352-2.375-0.484-4.792-0.484-7.254c0-32.932,26.689-59.621,59.621-59.621c2.463,0,4.88,0.132,7.254,0.439      C135.914,276.415,137.672,283.67,137.672,291.364z" style="fill:#FEE8B3;"/>
</g>
<g>
<path d="M185.202,329.089c0,32.932-26.689,59.621-59.621,59.621c-22.819,0-42.605-12.795-52.63-31.57      c8.354,4.485,17.895,7.035,28.095,7.035c32.932,0,59.621-26.689,59.621-59.621c0-10.113-2.551-19.654-6.99-28.052      C172.451,286.527,185.202,306.313,185.202,329.089z" style="fill:#FDD267;"/>
</g>
<g>
<path d="M125.577,392.705c-35.077,0-63.618-28.541-63.618-63.618s28.541-63.618,63.618-63.618      s63.614,28.541,63.614,63.618S160.654,392.705,125.577,392.705z M125.577,273.447c-30.679,0-55.64,24.961-55.64,55.64      s24.961,55.64,55.64,55.64s55.636-24.961,55.636-55.64C181.213,298.408,156.256,273.447,125.577,273.447z" style="fill:#333333;"/>
</g>
</g>
</g>
</g>
</svg>