<svg version="1.1" id="Layer_1" xmlns="http://www.w3.org/2000/svg" xmlns:xlink="http://www.w3.org/1999/xlink" x="0px" y="0px"
	 width="100%" viewBox="0 0 512 589" enable-background="new 0 0 512 589" xml:space="preserve">
<path fill="#010100" opacity="1.000000" stroke="none" 
	d="
M512.721069,70.767464 
	C513.000000,242.465820 512.988220,413.931641 513.081543,585.397400 
	C513.083496,588.953796 512.585205,590.111877 508.604248,590.108887 
	C340.804474,589.982117 173.004562,589.983582 5.204777,590.106018 
	C1.476887,590.108704 0.911444,589.190918 0.913204,585.706360 
	C1.010911,392.244995 1.009876,198.783539 0.919687,5.322135 
	C0.918099,1.914625 1.369645,0.885316 5.176294,0.888251 
	C172.976074,1.017627 340.775970,1.017082 508.575745,0.894759 
	C512.495300,0.891902 513.131531,1.958304 513.092407,5.575056 
	C512.892517,24.069105 513.000000,42.566475 513.000000,61.531342 
	C506.271881,62.909737 499.566437,65.011383 492.458130,62.179955 
	C491.753296,61.681843 491.388062,61.357132 491.023102,61.031441 
	C490.808380,60.839813 490.673645,60.746201 490.639038,60.732723 
	C490.341309,60.616844 490.432404,60.683235 491.140259,61.145496 
	C494.254333,63.350258 495.119049,66.037224 493.541992,69.139343 
	C491.940094,72.290230 488.996460,72.693810 485.820709,72.146950 
	C485.001801,72.005928 484.227966,71.695618 483.447418,71.411491 
	C478.430481,69.585403 475.615143,71.255615 474.394897,76.542168 
	C473.927124,78.568710 475.196899,79.206223 476.490906,79.948837 
	C478.071808,80.856079 479.777405,81.593796 480.953827,83.055725 
	C483.976257,86.811531 482.223602,91.168365 476.791931,92.584671 
	C476.105316,92.558670 475.833923,92.344055 475.543793,92.263931 
	C474.905853,92.087769 475.861206,92.433189 475.219604,92.252090 
	C474.578003,92.070984 475.389008,93.120651 475.112549,92.514000 
	C475.110962,92.510498 475.252411,92.423630 475.835938,92.392258 
	C480.296112,93.225494 481.935974,96.672401 483.929779,99.711029 
	C484.931824,101.238205 485.475037,103.047340 486.722382,104.426910 
	C487.953217,105.788246 489.429962,106.322762 491.211884,105.579025 
	C492.956940,104.850685 493.745331,103.501404 493.679626,101.644989 
	C493.626129,100.133194 493.058563,98.717262 492.798370,97.243019 
	C490.877136,86.358902 498.150238,74.097824 508.589447,70.602402 
	C509.874847,70.172012 511.144379,69.802811 512.721069,70.767464 
z"/>
<path fill="#468DFC" opacity="1.000000" stroke="none" 
	d="
M474.863983,92.344574 
	C476.895233,91.172958 480.568848,92.189102 481.144379,88.266960 
	C481.457581,86.132622 481.050507,84.241722 479.198029,83.005692 
	C477.972809,82.188156 476.619659,81.393974 475.211395,81.051567 
	C471.360138,80.115189 470.628906,78.661064 473.200043,75.255150 
	C475.048431,72.806648 475.992706,69.675621 477.340271,66.849068 
	C479.936890,68.165337 482.475616,69.616943 485.146545,70.759537 
	C487.784515,71.888031 490.480438,71.821396 492.268402,69.209656 
	C494.049408,66.608047 493.297119,64.186035 490.792633,61.899712 
	C490.497833,61.447205 490.459137,61.243015 490.729279,60.996223 
	C495.648651,61.929523 500.165466,62.468594 504.920258,61.147469 
	C507.223694,60.507446 510.217072,60.184116 512.644897,62.288818 
	C513.000000,64.700012 513.000000,67.400032 513.000000,70.550018 
	C500.715271,72.836899 490.732025,86.994850 494.969635,98.879967 
	C496.345734,102.739365 496.188812,106.030075 491.873108,107.563461 
	C487.595184,109.083427 485.491241,106.857719 483.813660,102.890839 
	C482.071198,98.770493 479.760406,94.673508 474.908081,92.538757 
	C474.622345,92.340614 475.092041,92.281105 474.863983,92.344574 
z"/>
<path fill="#FEB80B" opacity="1.000000" stroke="none" 
	d="
M173.336792,456.623291 
	C163.676407,456.999176 154.362869,456.910278 145.060669,457.194000 
	C141.018311,457.317291 141.987747,454.715790 141.986038,452.600098 
	C141.963882,425.158020 141.978668,397.715912 142.054352,369.835022 
	C142.860092,367.873322 144.311615,367.459534 145.763947,367.047852 
	C161.470871,362.595367 170.972763,348.882050 171.108414,332.146515 
	C171.251419,314.503632 171.119446,296.859467 171.169205,279.215973 
	C171.176636,276.575836 170.870544,273.861084 172.626984,271.103149 
	C175.638306,270.362396 177.222244,272.257111 178.960754,273.742371 
	C184.615921,278.573853 191.060226,281.106537 198.573654,281.103485 
	C246.142395,281.084076 293.711212,281.131287 341.279907,281.064484 
	C354.295013,281.046234 363.266235,274.671417 368.699799,263.032135 
	C369.470947,261.380188 369.987427,259.594727 371.731232,258.023254 
	C374.205109,258.229279 374.404541,259.988464 374.717926,261.604370 
	C375.036041,263.244598 374.962097,264.922913 374.962311,266.588165 
	C374.968170,311.894531 374.964722,357.200928 374.971710,402.507294 
	C374.972504,407.742432 374.459381,412.874634 371.674652,417.437134 
	C368.223480,423.091522 363.411865,426.870239 356.665894,428.013672 
	C352.535248,428.713867 348.408844,428.974579 344.237213,428.973724 
	C299.263977,428.964600 254.290726,428.955597 209.317490,428.973297 
	C193.288834,428.979614 182.068192,436.737823 176.404526,451.645203 
	C175.757187,453.349060 175.305817,455.169708 173.336792,456.623291 
z"/>
<path fill="#D38407" opacity="1.000000" stroke="none" 
	d="
M173.449188,457.015137 
	C175.969513,442.064697 184.597412,432.300568 199.153046,427.759430 
	C202.114380,426.835480 205.072845,426.954163 208.048203,426.952362 
	C254.839523,426.924072 301.630890,426.948456 348.422150,426.899139 
	C353.748077,426.893524 359.180115,426.643463 363.741089,423.454773 
	C369.534363,419.404633 372.889496,413.726837 372.898773,406.577240 
	C372.962036,357.787964 372.924896,308.998566 372.907440,260.209198 
	C372.907257,259.720612 372.736084,259.232056 372.431152,258.397552 
	C370.664490,256.868774 370.845459,255.194122 370.866577,253.520981 
	C371.176361,228.974640 370.921143,204.427094 371.017426,179.880280 
	C371.028534,177.050888 370.697845,174.256470 370.511444,171.001297 
	C371.127655,167.817108 371.276520,164.981934 371.862610,162.270218 
	C375.460785,145.623093 385.756683,134.912460 401.688782,129.418396 
	C403.555634,128.774643 405.545715,128.345230 407.757996,129.727753 
	C408.156952,131.663452 408.352509,133.318054 408.352753,134.972702 
	C408.367004,236.595047 408.366425,338.217407 408.356049,439.839752 
	C408.355865,441.669312 408.348724,443.514557 408.126068,445.325592 
	C407.330475,451.798096 402.345154,456.502960 395.813812,457.035919 
	C394.819427,457.117065 393.816406,457.113220 392.817383,457.113159 
	C319.849274,457.108856 246.881149,457.101013 173.449188,457.015137 
z"/>
<path fill="#F8D890" opacity="1.000000" stroke="none" 
	d="
M173.170258,270.247864 
	C172.979813,291.475281 172.979095,312.268799 172.853378,333.061554 
	C172.753845,349.523865 163.662003,362.668640 148.758041,368.021606 
	C146.908295,368.685913 144.886169,368.870270 142.534241,369.336609 
	C142.071762,367.733215 141.972900,366.070160 141.972763,364.407135 
	C141.965317,274.095154 141.995621,183.783142 141.872787,93.471344 
	C141.867081,89.279495 142.578766,87.876724 147.187012,87.943245 
	C168.011078,88.243874 188.841949,88.059647 209.670319,88.089577 
	C213.072357,88.094460 216.229584,88.279419 217.857346,84.131470 
	C218.692841,82.002357 227.208344,82.458969 228.182510,84.630409 
	C229.649796,87.901009 232.214050,88.101013 235.185303,88.095840 
	C254.847137,88.061600 274.509064,88.088684 294.639954,88.178932 
	C297.100677,90.577080 296.000854,93.007675 295.260773,95.341270 
	C290.476257,110.427986 276.123718,120.612915 258.923798,120.790565 
	C238.948669,120.996864 218.970566,120.834038 198.993759,120.848801 
	C196.663361,120.850525 194.330917,120.797981 192.003891,120.954308 
	C182.726212,121.577568 175.451279,128.800079 174.964478,138.068817 
	C174.641785,144.212631 175.023453,150.382660 174.378418,156.968231 
	C169.005310,168.219910 168.816040,179.826050 168.891220,191.516403 
	C168.998215,208.156860 168.958572,224.798660 168.901993,241.439606 
	C168.872406,250.142059 169.392380,258.729950 172.863785,266.877869 
	C173.256714,267.800110 173.397171,268.799011 173.170258,270.247864 
z"/>
<path fill="#FDB70B" opacity="1.000000" stroke="none" 
	d="
M173.393860,157.022827 
	C172.941116,151.096893 172.832260,145.274841 172.901505,139.454926 
	C173.042465,127.607758 181.592514,119.044327 193.421997,119.006134 
	C215.713089,118.934174 238.006042,119.124710 260.295319,118.907303 
	C277.928253,118.735321 292.068634,106.352844 295.071869,88.645409 
	C324.678040,88.213974 354.249329,87.936630 383.815277,88.220131 
	C397.413666,88.350525 407.445282,98.638115 408.249329,112.294930 
	C408.580597,117.921280 408.306549,123.583267 408.180176,129.618927 
	C390.988037,131.112381 374.303192,147.955460 372.983276,165.398804 
	C372.908630,166.385086 372.746033,167.364731 372.391724,168.655609 
	C369.842957,168.061630 369.369995,165.827133 368.496155,163.886444 
	C363.592499,152.995865 355.297485,146.980270 343.240845,146.897369 
	C321.967072,146.751053 300.691772,146.857635 279.417114,146.848923 
	C276.205383,146.847610 273.078613,146.992615 270.269165,149.758438 
	C264.968231,151.477554 260.021057,151.192230 254.631729,150.169220 
	C251.197830,147.189819 247.539597,146.793350 243.605499,146.818466 
	C228.680588,146.913788 213.750244,147.074554 198.830856,146.771851 
	C190.514191,146.603119 183.608368,149.331665 177.533630,154.728790 
	C176.420349,155.717880 175.347839,156.779144 173.393860,157.022827 
z"/>
<path fill="#FC8400" opacity="1.000000" stroke="none" 
	d="
M130.784317,208.758209 
	C131.256210,210.561661 131.477951,212.211365 131.478302,213.861099 
	C131.495285,293.179993 131.467392,372.498901 131.568634,451.817657 
	C131.573715,455.810059 131.016037,458.168579 126.433578,458.939209 
	C120.830421,459.881500 116.232307,463.356384 111.148109,467.670288 
	C111.148109,383.365723 111.148109,300.134369 111.232666,216.439911 
	C117.422836,212.830734 123.833160,210.474670 130.784317,208.758209 
z"/>
<path fill="#D6B199" opacity="1.000000" stroke="none" 
	d="
M173.648987,468.429260 
	C175.542770,468.020233 177.194672,467.818207 178.846603,467.817810 
	C248.471024,467.802063 318.095551,467.850037 387.719635,467.695923 
	C392.112610,467.686218 393.440247,468.704620 393.141937,473.132355 
	C392.717346,479.433655 393.021667,485.784088 392.940247,492.579895 
	C389.987549,495.462097 386.904480,495.216919 383.396667,493.389771 
	C382.140533,488.300385 378.747925,487.949799 374.749054,487.953552 
	C312.115692,488.012329 249.482254,487.987762 186.380310,487.904541 
	C178.215057,484.890686 172.358032,475.946106 173.648987,468.429260 
z"/>
<path fill="#F7EEE4" opacity="1.000000" stroke="none" 
	d="
M382.951782,493.384827 
	C386.036926,493.027130 389.007874,493.023987 392.422363,493.033569 
	C392.928497,500.203461 392.817566,507.368195 393.130524,514.514404 
	C393.276215,517.841797 392.243927,518.692261 388.982727,518.668457 
	C369.163147,518.523804 349.341980,518.597473 329.521362,518.596619 
	C325.982178,518.596497 322.806213,518.575256 320.928986,522.822327 
	C319.935760,525.069519 316.029999,525.048523 315.040863,522.821289 
	C313.157654,518.580872 309.980988,518.596069 306.439850,518.596191 
	C280.623077,518.596985 254.805389,518.488098 228.990402,518.704468 
	C224.760635,518.739929 223.503723,517.598083 223.872299,513.479248 
	C224.241989,509.348297 224.039948,505.156036 223.919403,500.995544 
	C223.857758,498.867432 224.526428,497.998322 226.749191,498.124603 
	C229.571579,498.284943 232.410019,498.162689 235.241531,498.162659 
	C281.878296,498.162231 328.515045,498.150940 375.151764,498.183685 
	C378.660095,498.186127 381.952637,498.128021 382.951782,493.384827 
z"/>
<path fill="#FDF4E9" opacity="1.000000" stroke="none" 
	d="
M173.444687,468.010071 
	C174.518967,476.502441 179.302750,482.344116 185.738403,487.555786 
	C174.271591,487.885803 162.631424,487.945038 150.991241,488.003601 
	C149.660522,488.010284 148.325928,487.950012 146.999832,488.030731 
	C143.863922,488.221649 142.050186,489.866364 142.030731,493.067627 
	C142.011353,496.258026 143.719742,498.036469 146.923798,498.112671 
	C150.913895,498.207642 154.911972,498.284058 158.897598,498.132446 
	C161.331116,498.039856 162.575668,498.519318 162.458908,501.343079 
	C162.259766,506.158936 162.300537,510.992065 162.446823,515.811707 
	C162.521240,518.264343 161.575638,518.907227 159.243668,518.867859 
	C151.593903,518.738831 143.932251,519.035645 136.290863,518.749573 
	C123.112083,518.256042 112.683868,508.375458 111.235947,495.391785 
	C109.923218,483.620392 117.572105,472.193298 129.206589,468.680939 
	C130.935532,468.158997 132.784332,467.773499 134.578522,467.770111 
	C147.385056,467.745941 160.191833,467.837311 173.444687,468.010071 
z"/>
<path fill="#FDB065" opacity="1.000000" stroke="none" 
	d="
M131.253693,208.462646 
	C125.110718,212.127914 119.038315,215.220657 111.702072,215.951385 
	C111.249008,200.490433 111.162224,185.004089 111.128845,169.517609 
	C111.122475,166.559067 110.908012,164.070419 107.544029,162.633194 
	C105.072617,161.577286 105.188995,153.128036 107.640083,152.047989 
	C110.695663,150.701538 111.141609,148.432648 111.130371,145.594925 
	C111.088799,135.100632 111.006401,124.604523 111.149529,114.111961 
	C111.304176,102.774971 117.210457,95.133301 127.052399,90.113510 
	C130.499802,88.355202 131.530960,89.156700 131.515976,93.076408 
	C131.395615,124.559410 131.453323,156.043091 131.445251,187.526550 
	C131.443497,194.355484 131.396057,201.184418 131.253693,208.462646 
z"/>
<path fill="#68D2F0" opacity="1.000000" stroke="none" 
	d="
M172.765182,548.987671 
	C172.765244,533.160278 172.873627,517.828674 172.684448,502.500793 
	C172.640610,498.948242 173.730194,498.026764 177.179260,498.094086 
	C188.006287,498.305420 198.840073,498.155762 209.671127,498.187317 
	C211.539764,498.192780 213.817245,497.501923 213.808380,500.828522 
	C213.753036,521.594238 213.780472,542.360107 213.780472,564.346863 
	C208.214600,559.325195 203.481857,555.020386 198.709915,550.759521 
	C193.831299,546.403381 192.006973,546.381165 187.249756,550.638672 
	C182.700912,554.709656 178.199081,558.833130 172.765198,563.759888 
	C172.765198,558.272339 172.765198,553.878601 172.765182,548.987671 
z"/>
<path fill="#FC4100" opacity="1.000000" stroke="none" 
	d="
M434.045105,154.010040 
	C434.044800,165.158676 433.928162,175.811661 434.113678,186.459366 
	C434.170776,189.735275 433.130280,190.764694 429.878326,190.834213 
	C418.782806,191.071472 418.785126,191.182358 418.785156,180.057739 
	C418.785156,168.075424 418.904724,156.091202 418.711517,144.112000 
	C418.654541,140.579758 419.349701,139.148163 423.308685,139.200775 
	C434.042450,139.343384 434.045105,139.144180 434.045105,150.017471 
	C434.045105,151.182419 434.045105,152.347382 434.045105,154.010040 
z"/>
<path fill="#3B47FB" opacity="1.000000" stroke="none" 
	d="
M434.047668,291.995972 
	C434.045898,296.811523 434.017181,301.128418 434.056091,305.444702 
	C434.070923,307.093048 433.829620,308.550720 431.817780,308.601318 
	C428.167969,308.693115 424.514679,308.679199 420.863159,308.657532 
	C418.626190,308.644287 418.789398,306.957275 418.788452,305.463013 
	C418.780029,292.181030 418.818268,278.898834 418.749695,265.617218 
	C418.737823,263.321625 419.473419,262.508972 421.861389,262.335602 
	C434.052948,261.450500 434.047699,261.377838 434.047699,273.566376 
	C434.047699,279.543274 434.047668,285.520172 434.047668,291.995972 
z"/>
<path fill="#A9007D" opacity="1.000000" stroke="none" 
	d="
M418.811157,398.999939 
	C418.811737,392.002502 418.945496,385.501129 418.755127,379.009247 
	C418.664490,375.918243 419.756714,374.988403 422.781067,375.062378 
	C436.532074,375.398468 433.806061,373.332489 434.004700,385.888184 
	C434.168060,396.214935 433.942230,406.547760 434.094513,416.874847 
	C434.140656,420.001953 433.354736,421.243408 429.953308,421.297729 
	C418.809082,421.475616 418.811310,421.613953 418.811310,410.495636 
	C418.811340,406.830383 418.811249,403.165131 418.811157,398.999939 
z"/>
<path fill="#A5E500" opacity="1.000000" stroke="none" 
	d="
M27.606934,200.947327 
	C29.248455,200.940186 30.646294,200.528122 31.069721,199.558640 
	C33.071354,194.975662 35.261681,197.101120 37.910381,198.926910 
	C41.514683,201.411423 43.000965,205.042221 44.495983,208.860443 
	C45.131046,210.482361 44.786240,210.846161 43.325813,211.184616 
	C40.405655,211.861374 39.017395,213.998016 38.181469,216.714325 
	C35.897221,224.136826 30.853331,227.625900 24.284655,226.426575 
	C17.645367,225.214355 12.896925,219.465240 13.239698,213.054031 
	C13.584991,206.595703 19.008793,201.535172 26.205482,200.962540 
	C26.536057,200.936234 26.870262,200.955582 27.606934,200.947327 
z"/>
<path fill="#3A75D0" opacity="1.000000" stroke="none" 
	d="
M474.732391,44.477333 
	C472.791534,44.259556 471.112335,43.960472 468.785858,43.546101 
	C471.140808,42.786224 472.922150,42.938602 474.924438,43.523804 
	C475.090027,44.043472 475.042053,44.219749 474.732391,44.477333 
z"/>
<path fill="#468DFC" opacity="1.000000" stroke="none" 
	d="
M490.662598,61.477440 
	C489.897797,61.207424 488.519226,61.391850 488.744049,60.320072 
	C488.855225,59.789913 490.093506,59.933842 490.924438,60.646698 
	C491.038086,60.953621 490.788666,61.303486 490.662598,61.477440 
z"/>
<path fill="#3A75D0" opacity="1.000000" stroke="none" 
	d="
M475.892853,44.931732 
	C476.825195,45.047527 477.208649,45.498905 476.796844,46.152615 
	C476.439178,46.720432 476.093842,46.213490 475.718872,45.662868 
	C475.623810,45.417931 475.676392,44.978249 475.892853,44.931732 
z"/>
<path fill="#468DFC" opacity="1.000000" stroke="none" 
	d="
M474.657623,92.348984 
	C474.689819,92.195457 474.757263,92.050293 474.824707,91.905121 
	C474.781677,91.966576 474.738617,92.028030 474.665741,92.248764 
	C474.635925,92.408051 474.692871,92.357338 474.657623,92.348984 
z"/>
<path fill="#3A75D0" opacity="1.000000" stroke="none" 
	d="
M474.967712,44.036747 
	C475.418152,44.042168 475.698334,44.217129 476.043945,44.638653 
	C476.109314,44.885212 475.865845,45.150043 475.744812,45.283989 
	C475.298553,45.334850 475.015533,45.176395 474.622711,44.750599 
	C474.470703,44.558640 474.797455,44.206287 474.967712,44.036747 
z"/>
<path fill="#040503" opacity="1.000000" stroke="none" 
	d="
M269.061829,149.820328 
	C270.196472,145.754807 272.614075,144.515656 276.269897,144.530228 
	C298.189545,144.617599 320.111664,144.400574 342.029144,144.636505 
	C357.415955,144.802139 367.060303,152.678238 372.059875,168.601837 
	C373.120911,196.388687 372.353149,223.822632 372.565948,251.251587 
	C372.581360,253.237808 372.266907,255.226578 372.161682,257.632874 
	C367.739380,274.732941 357.194641,282.960144 340.154419,282.966492 
	C293.377533,282.983948 246.600571,282.922302 199.823868,283.010498 
	C189.156921,283.030609 180.336594,279.474274 173.333084,270.865906 
	C168.718948,263.841461 167.468231,256.345764 167.532227,248.332916 
	C167.722153,224.556442 167.650253,200.777374 167.573868,176.999649 
	C167.551437,170.018021 168.799194,163.470627 172.869003,157.260986 
	C180.286636,147.891678 189.781525,144.223755 201.336044,144.483109 
	C216.574371,144.825150 231.826172,144.573700 247.072174,144.563629 
	C250.190781,144.561569 253.154968,144.767258 254.191620,148.980164 
	C256.085358,153.225052 253.665955,154.909042 250.682434,156.119095 
	C248.333817,157.071640 245.784073,156.925156 243.293625,156.932037 
	C228.672943,156.972473 214.051727,156.860703 199.431610,156.981140 
	C187.074554,157.082916 180.052124,164.158356 179.974228,176.580841 
	C179.877335,192.031891 179.950516,207.483673 179.947983,222.935135 
	C179.947601,225.260712 179.991821,227.586533 179.576630,230.339798 
	C180.281830,236.916931 180.197495,243.093658 179.818512,249.194382 
	C178.867645,264.500763 189.516785,271.079315 201.535736,271.075104 
	C215.481384,271.070221 229.427246,271.066315 243.372971,271.094513 
	C245.362579,271.098541 247.359238,270.971252 249.788452,271.368073 
	C262.368042,270.602661 274.509796,271.131561 286.644318,271.055054 
	C304.442566,270.942841 322.242798,271.161621 340.040283,270.963989 
	C350.201935,270.851166 357.418945,265.520630 359.556610,257.053986 
	C360.137482,254.753342 359.995667,252.427261 360.018188,250.107071 
	C360.186127,232.812195 359.740753,215.514450 360.308716,197.768906 
	C359.779724,190.196396 360.203522,183.062836 360.082306,175.936218 
	C359.884888,164.328079 352.774628,157.105606 341.057922,156.968475 
	C326.297302,156.795715 311.534424,156.934265 296.772552,156.910400 
	C294.784058,156.907181 292.790680,157.013565 290.354492,156.666168 
	C285.133820,156.996979 280.348694,157.283981 275.603577,156.651871 
	C271.970520,156.167892 268.808594,154.835907 269.061829,149.820328 
z"/>
<path fill="#060603" opacity="1.000000" stroke="none" 
	d="
M279.000244,328.522400 
	C296.495697,328.522675 313.491730,328.609222 330.486298,328.488708 
	C339.824341,328.422516 347.132721,331.617615 351.023163,340.528320 
	C354.970581,349.569580 352.860657,362.998291 346.674408,369.206268 
	C342.873718,373.020386 338.305206,375.129761 332.831268,375.128448 
	C292.675507,375.118866 252.519638,375.176910 212.364090,375.083954 
	C202.869263,375.061951 195.545013,368.834045 193.637131,359.504669 
	C192.629837,354.579041 192.648941,349.525696 193.565292,344.604767 
	C195.434967,334.564453 202.851639,328.696503 214.018158,328.572723 
	C229.345505,328.402771 244.676086,328.524750 260.005280,328.522369 
	C266.170258,328.521393 272.335266,328.522247 279.000244,328.522400 
z"/>
<path fill="#B8F4FE" opacity="1.000000" stroke="none" 
	d="
M178.389740,231.223328 
	C178.047379,211.714157 177.778915,192.441605 178.047592,173.176559 
	C178.188736,163.054688 186.985641,155.028824 197.419647,154.934601 
	C213.868835,154.786057 230.320328,154.873169 246.770798,154.895676 
	C250.325348,154.900543 253.534622,154.524658 254.233032,149.729401 
	C259.013184,149.373703 263.701477,149.372284 268.803802,149.370758 
	C270.020813,153.453094 272.505554,155.112473 276.635254,154.926117 
	C280.768005,154.739655 284.916351,154.898972 289.516205,154.996552 
	C291.889038,158.059402 290.194244,160.657974 288.760132,162.960342 
	C283.390930,171.580185 275.781952,176.670029 265.344360,176.750702 
	C252.520630,176.849838 239.696228,176.776093 226.872116,176.782913 
	C221.444901,176.785797 216.223663,177.671921 211.558685,180.574814 
	C203.480347,185.601715 200.074753,193.228271 199.825729,202.466293 
	C199.700058,207.127930 199.891541,211.813782 197.814850,216.599136 
	C197.552246,217.219574 197.459381,217.470367 197.206818,218.084335 
	C193.975891,223.669952 190.165131,228.118561 184.376282,230.470596 
	C182.557922,231.209412 180.765671,232.181808 178.389740,231.223328 
z"/>
<path fill="#69D4F2" opacity="1.000000" stroke="none" 
	d="
M196.725250,218.504593 
	C198.342804,211.113007 197.316086,203.512222 198.818298,196.248291 
	C201.573975,182.923279 211.440414,175.128998 225.128967,175.071747 
	C237.776581,175.018860 250.424561,175.066376 263.072388,175.055664 
	C277.174622,175.043716 285.461365,169.086105 289.927673,155.446442 
	C307.956940,155.036713 325.942261,154.775146 343.920593,155.022064 
	C353.687622,155.156204 361.719513,163.541626 362.096039,173.487869 
	C362.379303,180.970840 362.147766,188.473312 362.041901,196.417496 
	C360.782471,198.421707 358.991272,198.969757 357.363007,199.792282 
	C348.513397,204.262589 344.033966,211.486725 343.695343,221.379089 
	C343.576752,224.843124 344.258057,228.394699 342.517059,232.055206 
	C340.415344,233.806107 338.206696,233.658325 336.055817,233.713348 
	C329.572540,233.879150 323.075134,233.402298 316.604248,234.222870 
	C314.943573,234.433472 313.039124,234.483948 312.088989,232.856903 
	C311.135284,231.223648 312.092529,229.550964 313.141113,228.260757 
	C323.469543,215.551987 331.240540,200.545807 345.900940,191.712311 
	C347.038544,191.026871 347.937164,190.002426 348.728119,188.917053 
	C350.304688,186.753555 349.709137,185.102280 347.353333,184.207092 
	C344.532806,183.135300 341.540741,182.829971 338.526428,182.751755 
	C328.222443,182.484360 317.906403,183.198196 307.606781,181.979828 
	C302.986969,181.433334 299.097961,183.629974 299.578339,185.981247 
	C300.457031,190.282181 304.144501,190.124649 307.495575,190.255234 
	C314.470367,190.527039 321.469666,189.739243 328.799194,190.888794 
	C329.389069,191.188980 329.607330,191.339706 330.054108,191.813599 
	C330.455353,194.628662 328.661346,196.038681 327.209534,197.596634 
	C317.648499,207.856476 309.910583,219.563919 301.110046,230.427032 
	C300.272034,231.461487 299.643982,232.653687 299.133026,233.889847 
	C297.036835,238.961502 299.234589,242.183136 304.757324,241.735306 
	C313.078796,241.060516 321.401825,241.491730 329.722839,241.380936 
	C331.864166,241.352432 334.089600,241.181549 336.137268,243.019150 
	C336.154327,246.482300 333.752838,247.853180 331.574066,249.331573 
	C326.888092,252.511215 321.638763,253.781006 316.017426,253.785187 
	C303.899323,253.794205 291.778534,253.945755 279.663879,253.747360 
	C267.430145,253.547043 257.900696,257.582977 252.835861,269.459259 
	C252.378372,270.531982 251.699722,271.488251 250.284088,272.314026 
	C232.291031,272.581726 214.658127,272.978088 197.043106,272.580627 
	C185.761154,272.326111 178.068039,263.666534 177.918564,252.368118 
	C177.828369,245.549515 177.913391,238.728622 178.006241,231.446167 
	C185.938690,229.591095 191.267715,224.665253 196.013687,218.430954 
	C198.513290,221.517548 196.949234,224.484421 195.913406,227.417221 
	C194.974182,230.076447 193.457123,232.533340 193.069702,235.386322 
	C192.833130,237.128281 192.965073,238.737991 194.914841,239.545059 
	C196.745544,240.302841 198.160278,239.603302 199.370514,238.284241 
	C201.335007,236.143112 202.201294,233.382507 203.268845,230.791946 
	C205.324432,225.803757 208.556747,223.437149 214.241333,223.163330 
	C226.765076,222.560059 226.750290,222.260986 232.140060,233.634430 
	C232.639160,234.687622 233.098785,235.771912 233.761490,236.727890 
	C234.776352,238.191925 235.650635,240.264816 237.957733,239.302414 
	C240.145126,238.389969 241.218018,236.542496 240.854889,234.058914 
	C240.734085,233.232758 240.550308,232.420074 240.263733,231.637207 
	C235.552353,218.766403 232.918365,205.370056 230.225220,191.988571 
	C229.995300,190.846161 229.783188,189.699295 229.508896,188.567078 
	C229.039444,186.629425 228.788651,184.303818 226.604111,183.671707 
	C224.090454,182.944366 222.678940,185.124893 221.360718,186.749847 
	C214.628036,195.049088 209.381424,204.350494 203.662079,213.331650 
	C202.048889,215.864853 200.723938,218.681351 196.725250,218.504593 
z"/>
<path fill="#26B1C9" opacity="1.000000" stroke="none" 
	d="
M341.904633,231.870972 
	C342.346191,225.733856 341.133087,219.834610 342.963654,214.145645 
	C345.877289,205.090744 351.570801,198.933975 361.551331,196.892303 
	C361.993195,216.158478 362.355286,235.455063 361.979797,254.737274 
	C361.776245,265.188293 352.668182,272.694153 341.194214,272.723114 
	C311.078064,272.799072 280.961517,272.724121 250.380737,272.615479 
	C255.666840,257.008057 262.823151,252.054947 279.488220,252.050919 
	C291.963379,252.047897 304.438599,252.065445 316.913666,252.029999 
	C324.479004,252.008514 330.793335,249.175461 335.909119,243.097092 
	C337.485046,241.292587 339.372192,241.478851 341.162903,241.380646 
	C342.975922,241.281219 344.805603,241.312546 346.548950,240.717819 
	C348.319122,240.113907 350.125183,239.311523 350.198059,237.169510 
	C350.277222,234.843201 348.290314,234.346756 346.513763,233.867294 
	C344.939392,233.442398 343.204010,233.486160 341.904633,231.870972 
z"/>
<path fill="#FBF7AE" opacity="1.000000" stroke="none" 
	d="
M264.000183,339.257538 
	C286.330017,339.257538 308.159790,339.245880 329.989594,339.263062 
	C339.321655,339.270416 342.205200,342.178925 342.242889,351.502655 
	C342.246918,352.502502 342.257111,353.502533 342.240967,354.502136 
	C342.116333,362.218323 339.056244,365.376160 331.266571,365.403778 
	C311.936615,365.472382 292.606293,365.427124 273.276093,365.427032 
	C253.945892,365.426971 234.615646,365.451630 215.285507,365.414703 
	C206.106461,365.397186 203.400833,362.348267 203.407806,352.276459 
	C203.414658,342.386383 206.269333,339.281372 215.508026,339.265686 
	C231.505371,339.238525 247.502792,339.257782 264.000183,339.257538 
z"/>
<path fill="#030607" opacity="1.000000" stroke="none" 
	d="
M341.426331,231.602768 
	C343.988159,231.805267 346.130249,231.952774 348.202728,232.413528 
	C350.666962,232.961365 352.469269,234.491196 352.410583,237.171738 
	C352.348297,240.017807 350.485626,241.825699 347.787109,242.122650 
	C344.202179,242.517181 340.563263,242.420868 336.510986,242.662292 
	C325.789886,242.964722 315.504669,243.107956 305.221252,243.335739 
	C302.183868,243.403015 299.198456,243.662018 297.212921,240.628464 
	C295.054108,237.330124 296.588196,234.327850 298.427612,231.871384 
	C308.471436,218.458206 317.885681,204.525955 330.017822,192.382660 
	C322.581329,191.979630 315.012085,191.877502 307.442993,191.765274 
	C305.782562,191.740662 304.081329,191.896759 302.471283,191.589874 
	C299.356049,190.996094 297.297943,188.975098 297.298981,185.785217 
	C297.299988,182.664322 299.535248,181.293152 302.472015,180.705765 
	C306.989258,179.802246 311.414978,180.975113 315.885498,181.042725 
	C325.519562,181.188446 335.151794,181.470779 344.783447,181.744003 
	C346.786896,181.800812 348.798004,182.113708 350.422119,183.422913 
	C353.138428,185.612534 352.877014,189.126617 348.871368,191.504364 
	C332.489929,201.228287 323.965332,217.861984 312.395691,231.686447 
	C322.049438,231.686447 331.512604,231.686447 341.426331,231.602768 
z"/>
<path fill="#020505" opacity="1.000000" stroke="none" 
	d="
M196.285187,218.295593 
	C199.009781,217.711670 200.430649,215.832214 201.752258,213.594513 
	C207.414536,204.007401 213.424225,194.631973 220.104706,185.720764 
	C221.684311,183.613678 222.988297,180.384964 226.558533,181.153885 
	C230.221954,181.942902 230.402603,185.237106 231.041931,188.172577 
	C234.287048,203.072861 236.543198,218.215378 242.213791,232.519135 
	C243.785492,236.483658 242.046860,240.277695 238.438385,241.514786 
	C234.355850,242.914413 233.306839,239.487061 231.928787,236.978836 
	C230.170654,233.778824 228.685654,230.408066 227.986526,226.799377 
	C227.508240,224.330582 226.305511,223.600311 223.832596,223.908371 
	C219.382080,224.462784 214.897995,224.801407 210.417816,225.040771 
	C208.246765,225.156738 207.218109,226.225418 206.423218,228.095917 
	C204.996506,231.453293 203.395721,234.739319 201.791687,238.017990 
	C200.199478,241.272476 197.794418,242.813187 194.099197,241.409851 
	C190.046585,239.870773 190.356674,236.971130 191.524551,233.658813 
	C193.208679,228.882309 196.620468,224.645111 196.225525,218.790314 
	C196.345673,218.407104 196.186890,218.226974 196.285187,218.295593 
z"/>
<path fill="#020505" opacity="1.000000" stroke="none" 
	d="
M275.920227,214.807907 
	C278.892517,214.909531 281.412811,214.796249 283.854736,215.180725 
	C285.811615,215.488831 287.942657,216.331741 288.166107,218.695938 
	C288.400787,221.178513 286.195923,221.957153 284.387451,222.709915 
	C283.183075,223.211243 281.817017,223.513153 280.512543,223.553085 
	C274.041382,223.751144 267.562927,224.008835 261.094849,223.873749 
	C258.250061,223.814331 255.046921,222.880463 255.298065,219.145096 
	C255.532562,215.657669 258.347351,214.814941 261.479218,214.838547 
	C266.130615,214.873596 270.782654,214.822388 275.920227,214.807907 
z"/>
<path fill="#69D4F2" opacity="1.000000" stroke="none" 
	d="
M330.117645,192.069824 
	C330.111023,191.858643 329.989868,191.458496 330.044952,191.432556 
	C330.492554,191.221725 330.625885,191.378845 330.212158,191.914642 
	C330.022430,192.016754 330.084778,192.054276 330.117645,192.069824 
z"/>
<path fill="#66CCEA" opacity="1.000000" stroke="none" 
	d="
M222.976501,206.296783 
	C224.871338,215.965378 224.550537,216.261032 213.756134,214.705826 
	C216.243958,210.450027 218.637650,206.355301 221.500458,201.458023 
	C222.124252,203.393768 222.526321,204.641525 222.976501,206.296783 
z"/>
</svg>